<svg xmlns="http://www.w3.org/2000/svg" viewBox="0 0 512 512">
  <rect width="512" height="512" rx="112" fill="#FFF8F2"/>
  <g fill="none" stroke="#EE7220" stroke-linecap="round">
    <path d="M 287 148 A 120 120 0 1 0 287 332" stroke-width="32"/>
    <path d="M 320 130 L 320 350" stroke-width="28"/>
    <path d="M 322 242 L 408 142" stroke-width="28"/>
    <path d="M 322 242 L 408 350" stroke-width="28"/>
  </g>
  <path d="M 185 212 Q 245 198 305 214 Q 296 266 248 290 Q 205 262 185 212 Z" fill="#EE7220"/>
  <ellipse cx="243" cy="215" rx="54" ry="12" fill="#FFF8F2"/>
  <path d="M 196 238 Q 246 254 296 236" stroke="#FFF8F2" stroke-width="7" fill="none" stroke-linecap="round"/>
  <circle cx="300" cy="118" r="12" fill="#EE7220"/>
  <path d="M 306 104 Q 300 74 322 56 Q 348 76 330 102 Q 320 110 306 104 Z" fill="#EE7220"/>
  <text x="256" y="408" text-anchor="middle" font-family="Helvetica, Arial, sans-serif" font-size="31" font-weight="700" fill="#EE7220" letter-spacing="1">COFFEE KOTA HUJAN</text>
  <path d="M 140 432 Q 256 468 372 432" stroke="#EE7220" stroke-width="11" fill="none" stroke-linecap="round"/>
  <path d="M 180 456 Q 256 478 332 456" stroke="#EE7220" stroke-width="7" fill="none" stroke-linecap="round"/>
</svg>
